<svg width="1100" height="310" viewBox="0 0 1100 310" xmlns="http://www.w3.org/2000/svg"><defs><linearGradient id="bg"><stop stop-color="#0B1220"/><stop offset="1" stop-color="#111936"/></linearGradient><style>.m{font-family:'Courier New',monospace}.dash{animation:f 3s ease-in-out infinite}.d2{animation-delay:.35s}.d3{animation-delay:.7s}.line{stroke-dasharray:8 8;animation:m 2s linear infinite}@keyframes f{50%{transform:translateY(-8px)}}@keyframes m{to{stroke-dashoffset:-32}}</style></defs><rect width="1100" height="310" rx="24" fill="url(#bg)"/><text x="550" y="37" text-anchor="middle" class="m" font-size="16" fill="#94A3B8">FOUNDER MODE: BUILDING PRODUCTS THAT SOLVE REAL PROBLEMS</text><path d="M330 166H394M706 166H770" stroke="#64748B" stroke-width="2" class="line"/>
<g class="dash"><rect x="28" y="67" width="302" height="194" rx="16" fill="#07111F" stroke="#10B981"/><text x="54" y="101" class="m" font-size="24" font-weight="700" fill="#34D399">ZapeDesk</text><text x="54" y="124" class="m" font-size="12" fill="#94A3B8">Atendimento omnichannel</text><rect x="54" y="146" width="86" height="88" rx="7" fill="#0D2034"/><rect x="151" y="146" width="150" height="22" rx="6" fill="#164E63"/><rect x="151" y="179" width="112" height="19" rx="10" fill="#065F46"/><rect x="188" y="208" width="113" height="19" rx="10" fill="#0F766E"/></g>
<g class="dash d2"><rect x="399" y="67" width="302" height="194" rx="16" fill="#07111F" stroke="#8B5CF6"/><text x="425" y="101" class="m" font-size="24" font-weight="700" fill="#A78BFA">Carbonato Chat</text><text x="425" y="124" class="m" font-size="12" fill="#94A3B8">Automação com inteligência</text><rect x="425" y="153" width="62" height="31" rx="7" fill="#064E3B"/><rect x="523" y="153" width="62" height="31" rx="7" fill="#312E81"/><rect x="613" y="153" width="62" height="31" rx="7" fill="#164E63"/><path d="M487 168H523M585 168H613M554 184V215" stroke="#818CF8" stroke-width="2"/><rect x="523" y="207" width="62" height="31" rx="7" fill="#4C1D95"/></g>
<g class="dash d3"><rect x="770" y="67" width="302" height="194" rx="16" fill="#07111F" stroke="#22D3EE"/><text x="796" y="101" class="m" font-size="24" font-weight="700" fill="#38BDF8">LigaAI ERP</text><text x="796" y="124" class="m" font-size="12" fill="#94A3B8">Gestão inteligente</text><rect x="796" y="144" width="75" height="37" rx="7" fill="#064E3B"/><rect x="884" y="144" width="75" height="37" rx="7" fill="#172554"/><rect x="972" y="144" width="75" height="37" rx="7" fill="#3B1764"/><path d="M799 229L841 210L883 218L925 191L967 203L1009 178L1044 188" fill="none" stroke="#38BDF8" stroke-width="3"/></g></svg>